<?xml version="1.0" standalone="no"?>
<!DOCTYPE svg PUBLIC "-//W3C//DTD SVG 20010904//EN"
 "http://www.w3.org/TR/2001/REC-SVG-20010904/DTD/svg10.dtd">
<svg version="1.0" xmlns="http://www.w3.org/2000/svg"
 width="420.000000pt" height="420.000000pt" viewBox="0 0 420.000000 420.000000"
 preserveAspectRatio="xMidYMid meet">

<g transform="translate(0.000000,420.000000) scale(0.100000,-0.100000)"
fill="#A5A8A3" stroke="none">
<path d="M2307 3799 c-9 -6 -42 -59 -71 -118 l-54 -108 -119 -16 c-103 -15
-121 -20 -140 -42 -41 -46 -32 -69 67 -170 l91 -92 -21 -116 c-19 -105 -19
-119 -6 -145 30 -58 64 -56 195 13 l104 55 102 -55 c56 -30 114 -55 129 -55
31 0 76 40 76 67 0 10 -9 68 -20 128 l-19 110 90 88 c76 75 89 92 89 120 0 58
-30 75 -165 95 l-117 17 -54 107 c-30 59 -63 112 -73 118 -25 13 -61 12 -84
-1z"/>
<path d="M896 3310 c-223 -130 -422 -327 -552 -546 -348 -585 -266 -1349 199
-1840 229 -242 503 -396 831 -466 139 -29 424 -32 571 -4 220 41 447 137 625
264 173 123 356 326 445 495 36 68 37 74 24 102 -8 16 -26 36 -41 44 -25 14
-31 14 -80 -8 -268 -119 -401 -150 -638 -151 -589 -1 -1112 371 -1308 932
-119 337 -96 741 59 1050 37 74 38 119 3 147 -38 30 -60 26 -138 -19z"/>
<path d="M3447 2759 c-10 -6 -51 -77 -92 -159 -65 -129 -78 -149 -102 -154
-15 -3 -87 -15 -159 -25 -144 -21 -170 -30 -184 -67 -16 -41 6 -74 126 -189
l116 -110 -28 -161 c-15 -90 -24 -173 -20 -188 4 -17 19 -33 41 -43 l35 -17
143 73 c78 41 146 77 151 82 5 4 80 -28 167 -73 141 -73 160 -81 183 -70 14 6
33 23 42 37 16 25 16 34 -11 191 l-29 165 122 122 c98 98 122 128 122 150 0
68 -18 76 -235 107 -76 12 -140 22 -141 23 0 1 -33 68 -72 149 -56 118 -76
150 -97 158 -33 13 -55 12 -78 -1z"/>
<path d="M1857 2699 c-9 -6 -38 -52 -63 -102 -26 -51 -48 -93 -49 -95 -2 -2
-46 -10 -100 -18 -105 -16 -129 -24 -145 -54 -21 -40 -11 -62 71 -145 l81 -83
-16 -84 c-22 -115 -21 -140 7 -166 34 -32 69 -27 169 25 l91 46 87 -46 c96
-52 139 -58 170 -27 24 24 25 56 5 169 l-15 85 80 82 c88 90 98 117 57 158
-17 17 -44 27 -98 35 -41 7 -88 14 -104 16 -28 5 -36 15 -75 96 -25 50 -54 97
-65 105 -23 16 -63 18 -88 3z"/>
</g>
</svg>
