<?xml version="1.0" standalone="no"?>
<!DOCTYPE svg PUBLIC "-//W3C//DTD SVG 20010904//EN"
 "http://www.w3.org/TR/2001/REC-SVG-20010904/DTD/svg10.dtd">
<svg version="1.0" xmlns="http://www.w3.org/2000/svg"
 width="500.000000pt" height="500.000000pt" viewBox="0 0 500.000000 500.000000"
 preserveAspectRatio="xMidYMid meet">

<g transform="translate(0.000000,500.000000) scale(0.100000,-0.100000)"
fill="#EBBB06" stroke="none">
<path d="M2445 4750 c-60 -25 -114 -136 -141 -291 -30 -172 -3 -555 43 -617
59 -80 202 -52 254 51 23 44 23 24 -6 320 -7 73 13 218 41 296 21 58 25 85 20
114 -17 89 -134 160 -211 127z"/>
<path d="M3080 4319 c-13 -6 -33 -18 -43 -27 -51 -46 -156 -318 -165 -428 -4
-59 -3 -62 33 -102 54 -60 125 -77 192 -46 46 23 60 46 93 162 16 54 45 135
64 179 20 45 36 93 36 106 0 62 -40 118 -105 148 -45 21 -68 22 -105 8z"/>
<path d="M1682 4260 c-40 -24 -72 -75 -72 -114 0 -76 161 -405 215 -438 46
-28 90 -32 139 -14 64 24 98 65 103 123 4 43 -1 60 -59 173 -35 69 -75 153
-90 187 -33 78 -69 103 -148 103 -37 0 -66 -6 -88 -20z"/>
<path d="M934 4125 c-51 -30 -79 -83 -71 -132 8 -45 56 -148 104 -221 71 -107
274 -300 417 -396 98 -66 220 12 218 139 0 63 -24 98 -115 170 -164 132 -280
262 -309 347 -37 109 -148 151 -244 93z"/>
<path d="M3909 4117 c-142 -56 -296 -180 -445 -358 -100 -120 -134 -175 -134
-219 0 -104 139 -177 239 -126 17 9 58 51 92 94 123 157 266 285 351 314 78
26 118 81 118 159 0 81 -71 160 -142 158 -12 0 -48 -10 -79 -22z"/>
<path d="M2336 3580 c-165 -26 -369 -112 -497 -209 -189 -144 -333 -361 -396
-596 -23 -89 -26 -118 -26 -265 0 -147 3 -176 26 -265 63 -235 207 -452 396
-596 95 -72 267 -154 386 -184 418 -106 864 50 1126 394 70 92 154 267 186
386 23 89 26 118 26 265 0 147 -3 176 -26 265 -32 119 -116 294 -186 386 -147
193 -361 334 -600 396 -108 27 -313 39 -415 23z"/>
<path d="M3995 3349 c-143 -57 -284 -138 -307 -174 -43 -71 -28 -157 38 -215
56 -48 97 -43 246 33 67 34 151 74 185 89 76 32 103 69 103 143 0 62 -25 113
-69 142 -47 32 -81 29 -196 -18z"/>
<path d="M772 3289 c-84 -42 -124 -154 -79 -222 29 -45 209 -125 371 -167 114
-29 176 -9 216 70 34 67 23 148 -26 192 -11 9 -65 30 -120 46 -56 17 -135 45
-175 62 -97 43 -133 47 -187 19z"/>
<path d="M4080 2705 c-8 -2 -61 -9 -118 -15 -121 -14 -160 -35 -180 -94 -26
-79 35 -192 114 -212 14 -4 69 -3 122 2 54 5 160 9 237 8 125 0 148 -3 216
-27 117 -42 164 -34 227 37 34 39 48 88 38 134 -23 101 -237 173 -510 171 -72
-1 -138 -3 -146 -4z"/>
<path d="M345 2666 c-41 -19 -80 -63 -95 -109 -33 -105 36 -171 235 -223 55
-14 109 -18 255 -19 218 0 366 17 413 49 86 58 57 210 -49 261 -39 18 -28 19
-317 -10 -72 -7 -223 14 -292 40 -75 28 -106 30 -150 11z"/>
<path d="M3787 2126 c-49 -18 -64 -32 -88 -77 -33 -66 -21 -147 27 -191 11 -9
62 -29 114 -44 52 -15 130 -42 173 -61 107 -47 135 -50 192 -23 120 58 136
207 30 267 -72 41 -208 94 -304 119 -108 28 -95 27 -144 10z"/>
<path d="M1051 2048 c-41 -23 -122 -62 -180 -87 -128 -56 -151 -82 -151 -170
0 -89 60 -161 134 -161 76 0 405 161 438 215 43 71 28 157 -38 215 -52 45
-107 42 -203 -12z"/>
<path d="M3450 1647 c-47 -31 -72 -78 -72 -136 0 -70 21 -102 125 -184 159
-127 270 -253 299 -339 17 -50 44 -84 82 -102 110 -52 250 33 233 141 -8 45
-56 148 -104 221 -72 109 -269 296 -417 396 -49 33 -101 34 -146 3z"/>
<path d="M1455 1620 c-52 -12 -74 -29 -136 -108 -123 -157 -256 -276 -349
-312 -85 -33 -120 -80 -120 -161 0 -79 70 -159 139 -159 40 0 155 51 235 104
99 66 210 174 316 307 93 117 110 146 110 192 0 83 -107 158 -195 137z"/>
<path d="M3005 1321 c-23 -10 -53 -33 -68 -50 -45 -53 -38 -97 36 -243 34 -67
74 -151 89 -185 32 -76 69 -103 143 -103 97 0 171 66 162 145 -5 51 -84 237
-143 338 -37 65 -53 82 -87 98 -53 23 -81 23 -132 0z"/>
<path d="M1882 1303 c-46 -22 -59 -46 -92 -161 -16 -54 -45 -135 -64 -179 -39
-89 -43 -117 -22 -166 39 -93 159 -132 230 -76 56 44 164 314 174 435 4 59 3
62 -33 102 -54 60 -128 77 -193 45z"/>
<path d="M2490 1218 c-50 -14 -94 -51 -115 -94 -19 -39 -19 -28 10 -317 7 -73
-13 -218 -41 -296 -21 -58 -25 -86 -20 -114 9 -50 57 -102 111 -123 108 -41
174 23 227 217 20 73 23 108 23 274 0 195 -16 347 -41 397 -26 51 -90 75 -154
56z"/>
</g>
</svg>
